<?xml version="1.0" encoding="utf-8"?>
<!-- Generator: Adobe Illustrator 22.1.0, SVG Export Plug-In . SVG Version: 6.00 Build 0)  -->
<svg version="1.1" id="Layer_1" xmlns="http://www.w3.org/2000/svg" xmlns:xlink="http://www.w3.org/1999/xlink" x="0px" y="0px"
	 viewBox="0 0 800 800" enable-background="new 0 0 800 800" xml:space="preserve">
<g>
	<defs>
		<rect id="SVGID_1_" width="800" height="800"/>
	</defs>
	<clipPath id="SVGID_2_">
		<use xlink:href="#SVGID_1_"  overflow="visible"/>
	</clipPath>
	<rect clip-path="url(#SVGID_2_)" fill="#4B5B41" width="800" height="800"/>
	<path clip-path="url(#SVGID_2_)" fill="#D9D187" d="M-220.814,9.106c39.419,50.456,63.754,14.339,121.147,60.065
		c57.392,45.729,74.81-63.956,141,1.791c66.19,65.748,49.933-57.729,130.664,4.734c80.732,62.466-30.919-58.427,32.425-70.281
		c63.344-11.854-58.816-84.529-86.175-45.956C90.891-1.964,67.329-84.671,29.294-47.354C-8.74-10.037-22.49-60.115-64.781-38.953
		c-42.292,21.161-116.121-8.019-135.448,14.682C-219.556-1.568-235.429-9.599-220.814,9.106z"/>
	<path clip-path="url(#SVGID_2_)" fill="#D9D187" d="M-14.607,170.435c40.26-8.475,35.699-74.969,71.4-22.311
		c35.699,52.656,36.591-52.658,107.098-11.603c70.506,41.055,116.917,132.089,33.915,99.066
		c-83.001-33.022-91.927,64.259-106.207,14.28c-14.278-49.98-82.108,50.872-80.323-5.355
		C13.061,188.285-82.435,184.715-14.607,170.435z"/>
	<path clip-path="url(#SVGID_2_)" fill="#D9D187" d="M319.614,534.88c40.261-8.477,35.699-74.969,71.4-22.313
		c35.7,52.656,36.59-52.656,107.098-11.603c70.508,41.057,116.916,132.088,33.914,99.067c-83-33.021-91.928,64.261-106.206,14.281
		c-14.278-49.981-82.108,50.87-80.323-5.356C347.282,552.729,251.786,549.159,319.614,534.88z"/>
	<path clip-path="url(#SVGID_2_)" fill="#D9D187" d="M-141.32,364c26.95,36-3.851-37.333,52.942,17.333
		c56.792,54.667,49.091-20,80.857,9.333c31.763,29.333,18.289-28,77.969,8c59.68,36,20.213,10.667,61.604,1.333
		c41.391-9.333,87.594-57.333,10.589-66.667c-77.005-9.333-51.979-56-98.183-22.667C-1.748,344,29.057,269.333-16.185,312
		c-45.242,42.667,1.924-14.667-42.354,6.667C-102.818,340-107.63,304-129.771,325.333c-22.138,21.333-27.913,22.667-15.4,37.333"/>
	<path clip-path="url(#SVGID_2_)" fill="#D9D187" d="M219.538,38.424c0,0,10.26-28.523,40.111-13.51
		c29.849,15.013,55.967-13.513,71.824,2.252c15.858,15.763,22.388-12.763,55.036,1.5c32.647,14.263,24.252-18.766,56.9-3
		c32.648,15.76,36.38-97.584,85.817-93.081c49.44,4.503,66.23,24.771,29.852,30.776c-36.38,6.005-14.927,46.539-38.247,48.791
		c-23.32,2.25,5.596,31.526-13.992,38.281c-19.589,6.755-13.99,2.253-0.933,33.779c13.06,31.526,11.195,63.802-17.724,45.787
		c-28.917-18.013-36.381,13.513-58.766-21.769c-22.386-35.278-41.976-3.002-77.422-24.018
		c-35.447-21.018-39.178-1.502-75.556-21.768c-36.379-20.266-57.833,9.008-65.297-5.255C203.68,42.93,219.538,38.424,219.538,38.424
		z"/>
	<path clip-path="url(#SVGID_2_)" fill="#D9D187" d="M215.323,406.628c-17.396,23.697,2.133,23.82,19.227,24.672
		c19.352,0.252,36.267,1.232,65.721,12.778c30.919,9.781,57.566-0.276,81.349-8.536c24.68-8.148,46.495-14.498,88.474,5.234
		c41.013,18.724,58.734,15.432,72.606,7.25c15.234-6.889,26.617-18.664,86.503,12.961c49.56,38.275,48.411,21.844,24.519-0.94
		c-21.625-23.461-65.998-53.271-50.545-57.477c24.151-4.956-41.885-26.949-84.516-39.953c-46.361-13.554-69.314-18.117-45.158-0.902
		c18.4,17.04-6.378,7.876-21.498-1.563c-17.289-9.416-24.914-19.103-22.239-2.562c-1.917,15.822-13.997,13.17-19.091,8.762
		c-6.792-4.415-6.594-10.586-23.154-1.977c-18.409,8.55-35.664,6.566-46.952,4.179c-12.697-2.244-19.427-4.894-49.273,5.68
		C235.306,395.489,233.879,388.661,215.323,406.628z"/>
	<path clip-path="url(#SVGID_2_)" fill="#D9D187" d="M368.747,205.082c25.5-3.715,61.857-20.13,80.05-29.568
		c19.589-9.467,21.011-11.957,8.895,11.501c-4.281,21.285,22.344,11.418,29.461-0.8c11.67-12.028,3.834-26.406,35.742-9.745
		c40.029,13.461,132.906,47.4,168.219,71.512c40.086,24.025,22.607,38.223-47.817,10.201c-69.883-19.072-102.034-9.439-124.901-3.06
		c-21.963,7.217-34.643,11.18-44.7,0.138c-10.325-12.714-43.755-6.345-75.344,4.424c-31.24,9.768-60.641,23.937-54.875,3.737
		C356.836,224.997,273.438,219.608,368.747,205.082z"/>
	<path clip-path="url(#SVGID_2_)" fill="#D9D187" d="M-130.031,677.672c-9.628,15.8,10.461,6.308,26.823,0.094
		c18.203-6.605,32.682-9.933,54.336,9.138c43.701,15.42,77.463,10.063,100.19,4.433c24.039-5.898,37.044-12.07,69.464-4.458
		c33.088,7.4,45.646,3.966,62.633,0.45c17.789-3.297,40.008-6.677,110.989,5.872c140.344,28.93,49.883,9.901,138.764,9.357
		c45.15,1.43,82.2-8.117,63.369-21.523c-14.273-12.967-84.427-29.789-148.38-32.761c-134.855-7.128-157.761-47.534-151.662-17.977
		c-12.206,13.969-25.216,5.521-25.802-2.31c-3.344-7.758,5.74-14.898-26.065,3.393c-44.062,17.276-43.88,14.375-34.562,9.141
		c8.005-5.208,25.148-12.747-15.32-4.192c-45.627,8.638-56.141,5.484-55.565,1.88c-1.398-3.484,8.292-7.416-42.519,2.381
		c-98.849,19.781-119.479,22.922-131.135,36.148"/>
	<path clip-path="url(#SVGID_2_)" fill="#D9D187" d="M-172.833,535.755c0.195-0.478,45.151-27.88,66.185-15.9
		c27.528,9.9,79.294-13.234,89.917-1.631c15.737,10.686,31.883-9.713,70.424,0.066c44.203,9.95,28.396-13.078,72.445-1.497
		c22.373,6.049,29.154-10.636,16.308-32.445c-10.268-21.24-40.164-47.605-31.62-47.756c23.044-0.992,86.742,18.125,70.703,26.847
		c-14.127,8.102,55.802,43.87,30.367,45.19c-25.477,0.961,35.32,26.775,12.026,30.205c-24.519,3.167-18.13-0.072,14.916,25.242
		c33.123,26.756,27.417,47.693-20.123,26.425c-48.445-17.753-59.325-1.331-97.698-22.761c-37.607-20.984-68.461-3.575-123.487-13.06
		c-50.12-10.409-62.237,3.442-108.456-5.997c-39.495-12.219-92.182,18.197-92.231,6.768
		C-200.32,542.435-172.328,535.57-172.833,535.755z"/>
	<path clip-path="url(#SVGID_2_)" fill="#D9D187" d="M669.969,677.656c-9.628,15.8,10.461,6.308,26.823,0.094
		c18.203-6.604,32.682-9.933,54.336,9.138c43.7,15.42,77.463,10.063,100.19,4.433c24.039-5.898,37.045-12.07,69.464-4.458
		c33.089,7.4,45.645,3.966,62.633,0.45c17.789-3.297,40.008-6.677,110.989,5.872c140.344,28.93,49.883,9.901,138.764,9.357
		c45.15,1.43,82.2-8.117,63.369-21.523c-14.273-12.967-84.427-29.789-148.38-32.761c-134.854-7.128-157.761-47.534-151.661-17.977
		c-12.206,13.969-25.217,5.521-25.803-2.31c-3.344-7.758,5.74-14.898-26.065,3.393c-44.063,17.276-43.881,14.375-34.563,9.141
		c8.005-5.208,25.148-12.747-15.32-4.192c-45.628,8.638-56.141,5.484-55.565,1.88c-1.398-3.484,8.292-7.416-42.519,2.381
		c-98.849,19.781-119.478,22.922-131.135,36.148"/>
	<path clip-path="url(#SVGID_2_)" fill="#D9D187" d="M579.188,9.106c39.417,50.456,63.753,14.339,121.146,60.065
		c57.391,45.729,74.811-63.956,141,1.791c66.19,65.748,49.933-57.729,130.664,4.734c80.732,62.466-30.919-58.427,32.425-70.281
		s-58.815-84.529-86.175-45.956c-27.357,38.575-50.919-44.132-88.953-6.815c-38.033,37.318-51.783-12.76-94.075,8.401
		c-42.292,21.161-116.12-8.019-135.448,14.682C580.442-1.568,564.573-9.599,579.188,9.106z"/>
	<path clip-path="url(#SVGID_2_)" fill="#D9D187" d="M785.394,170.435c40.26-8.475,35.7-74.969,71.398-22.311
		c35.7,52.656,36.594-52.658,107.099-11.603s116.917,132.089,33.917,99.066c-83.003-33.022-91.928,64.259-106.209,14.28
		c-14.278-49.98-82.109,50.872-80.322-5.355C813.063,188.285,717.565,184.715,785.394,170.435z"/>
	<path clip-path="url(#SVGID_2_)" fill="#D9D187" d="M658.68,364c26.95,36-3.852-37.333,52.942,17.333
		c56.792,54.667,49.092-20,80.857,9.333c31.763,29.333,18.289-28,77.969,8c59.68,36,20.213,10.667,61.604,1.333
		c41.391-9.333,87.594-57.333,10.589-66.667c-77.005-9.333-51.979-56-98.183-22.667c-46.205,33.333-15.4-41.333-60.643,1.333
		c-45.242,42.667,1.924-14.667-42.354,6.667C697.183,340,692.37,304,670.229,325.333c-22.139,21.333-27.912,22.667-15.401,37.333"/>
	<path clip-path="url(#SVGID_2_)" fill="#D9D187" d="M627.167,535.755c0.195-0.478,45.15-27.88,66.185-15.9
		c27.528,9.9,79.294-13.234,89.917-1.631c15.736,10.686,31.883-9.713,70.424,0.066c44.203,9.95,28.396-13.078,72.445-1.497
		c22.373,6.049,29.154-10.636,16.308-32.445c-10.269-21.24-40.164-47.605-31.62-47.756c23.045-0.992,86.742,18.125,70.703,26.847
		c-14.127,8.102,55.803,43.87,30.367,45.19c-25.477,0.961,35.32,26.775,12.026,30.205c-24.519,3.167-18.13-0.072,14.917,25.242
		c33.122,26.756,27.416,47.693-20.123,26.425c-48.445-17.753-59.325-1.331-97.697-22.761c-37.607-20.984-68.461-3.575-123.487-13.06
		c-50.12-10.409-62.237,3.442-108.456-5.997c-39.494-12.219-92.182,18.197-92.231,6.768
		C599.68,542.435,627.672,535.57,627.167,535.755z"/>
	<path clip-path="url(#SVGID_2_)" fill="#D9D187" d="M-220.814,809.106c39.419,50.456,63.754,14.339,121.147,60.065
		c57.392,45.73,74.81-63.956,141,1.792c66.19,65.747,49.933-57.73,130.664,4.734c80.732,62.466-30.919-58.428,32.425-70.281
		c63.344-11.854-58.816-84.529-86.175-45.956c-27.356,38.575-50.918-44.133-88.953-6.815c-38.034,37.318-51.784-12.76-94.075,8.401
		c-42.292,21.161-116.121-8.019-135.448,14.683C-219.556,798.433-235.429,790.401-220.814,809.106z"/>
	<path clip-path="url(#SVGID_2_)" fill="#D9D187" d="M219.538,838.425c0,0,10.26-28.523,40.111-13.511
		c29.849,15.013,55.967-13.513,71.824,2.253c15.858,15.763,22.388-12.764,55.036,1.5c32.647,14.263,24.252-18.766,56.9-3
		c32.648,15.76,36.38-97.584,85.817-93.081c49.44,4.503,66.23,24.771,29.852,30.776c-36.38,6.005-14.927,46.539-38.247,48.791
		c-23.32,2.25,5.596,31.526-13.992,38.281c-19.589,6.756-13.99,2.253-0.933,33.779c13.06,31.525,11.195,63.802-17.724,45.786
		c-28.917-18.013-36.381,13.513-58.766-21.769c-22.386-35.278-41.976-3.002-77.422-24.017
		c-35.447-21.019-39.178-1.503-75.556-21.769c-36.379-20.266-57.833,9.008-65.297-5.255
		C203.68,842.93,219.538,838.425,219.538,838.425z"/>
	<path clip-path="url(#SVGID_2_)" fill="#D9D187" d="M579.188,809.106c39.417,50.456,63.753,14.339,121.146,60.065
		c57.391,45.73,74.811-63.956,141,1.792c66.19,65.747,49.933-57.73,130.664,4.734c80.732,62.466-30.919-58.428,32.425-70.281
		c63.344-11.854-58.815-84.529-86.175-45.956c-27.357,38.575-50.919-44.133-88.953-6.815c-38.033,37.318-51.783-12.76-94.075,8.401
		c-42.292,21.161-116.12-8.019-135.448,14.683C580.442,798.433,564.573,790.401,579.188,809.106z"/>
	<path clip-path="url(#SVGID_2_)" fill="#8C9557" d="M-118.082,98.945c34.195,46.551,57.104,14.633,107.634,57.398
		c50.529,42.768,69.167-55.671,127.094,5.383c57.929,61.055,46.568-50.72,117.695,7.76c71.128,58.483-26.319-53.51,31.116-62.506
		c57.434-8.998-50.776-77.793-76.478-43.742c-25.698,34.053-44.734-41.154-80.027-8.522C73.659,87.35,62.599,41.827,23.898,59.778
		c-38.701,17.952-104.494-10.333-122.527,9.62C-116.664,89.354-130.761,81.688-118.082,98.945z"/>
	<path clip-path="url(#SVGID_2_)" fill="#8C9557" d="M-70.214,257.151c35.77-7.353,32.003-66.391,63.466-19.502
		c31.466,46.888,32.702-46.584,95.108-9.848c62.408,36.735,103.219,117.731,29.688,88.073
		c-73.532-29.659-81.863,56.648-94.329,12.228c-12.464-44.422-73.093,44.809-71.271-5.091
		C-45.73,273.112-130.477,269.54-70.214,257.151z"/>
	<path clip-path="url(#SVGID_2_)" fill="#8C9557" d="M-30.819,468.227c22.97,28.177-4.357-30.028,43.341,12.231
		c47.695,42.258,38.983-17.794,65.62,4.839c26.634,22.633,13.837-23.227,63.242,3.859c49.405,27.083,16.683,7.94,49.802-0.982
		c33.12-8.92,68.836-49.232,6.327-54.201c-62.509-4.966-43.852-43.495-80.059-15.028c-36.207,28.466-13.819-32.871-48.938,3.102
		c-35.117,35.972,1.065-11.911-33.987,6.797c-35.051,18.711-40.141-10.206-57.311,7.766c-17.169,17.969-21.788,19.239-11.193,30.669
		"/>
	<path clip-path="url(#SVGID_2_)" fill="#8C9557" d="M183.338,279.073c-17.389,21.695,1.06,22.596,17.18,24.086
		c18.276,1.016,34.224,2.62,61.592,14.713c28.827,10.482,54.413,2.047,77.216-4.805c23.65-6.711,44.52-11.836,83.397,8.497
		c38.006,19.338,54.883,16.938,68.32,9.763c14.675-5.898,25.904-16.57,81.225,15.719c45.299,38.156,44.872,22.583,23.208,0.094
		c-19.495-23.039-60.229-52.987-45.458-56.341c23.02-3.715-38.5-27.147-78.264-41.146c-43.268-14.668-64.775-19.901-42.638-2.664
		c16.706,16.84-6.344,7.187-20.253-2.34c-15.961-9.591-22.776-19.051-20.914-3.313c-2.445,14.875-13.755,11.884-18.391,7.515
		c-6.242-4.445-5.807-10.269-21.802-2.797c-17.738,7.341-33.965,4.774-44.537,2.065c-11.908-2.63-18.163-5.404-46.789,3.391
		C202.67,269.35,201.596,262.84,183.338,279.073z"/>
	<path clip-path="url(#SVGID_2_)" fill="#8C9557" d="M315.958,139.098c18.097-2.789,43.833-14.668,56.706-21.48
		c13.862-6.843,14.856-8.62,6.388,8.12c-2.917,15.15,15.943,7.982,20.93-0.742c8.219-8.615,2.568-18.785,25.339-7.134
		c28.521,9.329,94.716,32.897,119.948,49.822c28.625,16.835,16.289,27.026-33.917,7.53c-49.766-13.139-72.555-6.105-88.766-1.438
		c-15.563,5.258-24.55,8.148-31.761,0.362c-7.411-8.973-31.127-4.251-53.51,3.587c-22.141,7.125-42.948,17.366-38.969,2.979
		C307.612,153.319,248.32,149.98,315.958,139.098z"/>
	<path clip-path="url(#SVGID_2_)" fill="#8C9557" d="M-202.982,725.3c-8.708,13.518,8.952,5.708,23.303,0.664
		c15.961-5.342,28.613-7.92,47.015,9.122c37.635,14.347,67.087,10.425,86.957,6.026c21.016-4.602,32.449-9.683,60.453-2.362
		c28.588,7.148,39.574,4.438,54.41,1.75c15.528-2.477,34.907-4.933,96.31,7.516c121.314,28.188,43.129,9.688,120.366,11.145
		c39.2,2.225,71.599-5.267,55.528-17.325c-12.12-11.575-72.711-27.716-128.213-31.69c-117.018-9.122-136.043-44.729-131.385-18.914
		c-10.909,11.873-22.03,4.25-22.369-2.567c-2.737-6.813,5.31-12.82-22.721,2.383c-38.662,14.052-38.441,11.536-30.231,7.19
		c7.069-4.352,22.129-10.529-13.22-3.977c-39.833,6.516-48.898,3.547-48.32,0.427c-1.139-3.058,7.366-6.263-36.996,1.144
		c-86.318,15.041-104.311,17.32-114.727,28.56"/>
	<path clip-path="url(#SVGID_2_)" fill="#8C9557" d="M291.794,626.219c0.172-0.38,37.281-21.136,53.895-10.833
		c21.917,8.822,64.393-8.284,72.613,1.4c12.381,9.1,26.026-6.875,56.834,2.18c35.372,9.367,23.313-9.695,58.51,0.982
		c17.875,5.557,23.85-7.703,14.141-25.693c-7.646-17.45-30.974-39.63-24.072-39.494c18.625-0.104,69.453,17.247,56.247,23.802
		c-11.648,6.112,43.708,37.091,23.144,37.388c-20.592,0.006,27.692,22.678,8.791,24.74c-19.883,1.814-14.63-0.607,11.276,20.822
		c25.922,22.594,20.683,39.318-17.039,20.717c-38.56-15.789-47.836-2.865-78.159-21.32c-29.713-18.07-55.141-4.953-99.26-14.271
		c-40.136-9.914-50.333,0.898-87.348-8.117c-31.504-11.055-74.944,11.901-74.638,2.678
		C269.41,630.778,292.208,626.083,291.794,626.219z"/>
	<path clip-path="url(#SVGID_2_)" fill="#8C9557" d="M113.161-24.672c32.477,45.331,54.958,14.781,103.248,56.647
		c48.287,41.867,67.412-52.948,122.63,6.658c55.221,59.604,45.539-48.431,113.531,8.844c67.992,57.274-24.792-51.961,30.755-59.986
		c55.55-8.025-48.122-75.682-73.325-43.105c-25.201,32.578-42.714-40.244-77.159-9.147c-34.445,31.099-44.599-12.976-82.166,3.91
		c-37.565,16.885-100.755-11.176-118.396,7.879C114.641-33.915,101.12-41.478,113.161-24.672z"/>
	<path clip-path="url(#SVGID_2_)" fill="#8C9557" d="M263.811,384.023c32.998-6.052,30.695-60.347,58.672-16.667
		c27.977,43.68,30.945-42.142,87.538-7.18c56.6,34.964,92.49,110.151,25.542,81.469c-66.952-28.682-76.296,50.422-86.874,9.381
		c-10.575-41.042-68.008,39.719-65.357-6.073C285.985,399.161,208.223,394.22,263.811,384.023z"/>
	<path clip-path="url(#SVGID_2_)" fill="#8C9557" d="M-126.094,612.813c27.524,35.255-4.578-37.047,52.995,16.172
		c57.57,53.219,48.412-20.875,80.588,7.656c32.175,28.531,17.622-28.208,77.69,6.388c60.067,34.6,20.315,10.201,61.284,0.089
		c40.971-10.112,85.948-58.771,9.19-66.503c-76.76-7.734-52.813-54.641-98.086-20.567c-45.276,34.073-16.143-40.792-60.274,2.544
		c-44.13,43.336,1.617-14.622-41.981,7.482c-43.602,22.102-49.109-13.6-70.698,8.057c-21.583,21.662-27.299,23.102-14.563,37.433"/>
	<path clip-path="url(#SVGID_2_)" fill="#8C9557" d="M-230.965,0.539c0.133-0.362,32.906-21.992,48.903-13.628
		c20.784,6.644,58.747-11.989,66.976-3.625c12.016,7.542,23.503-8.096,52.492-1.841c33.214,6.231,20.815-10.508,53.956-3.058
		c16.838,3.909,21.445-8.708,11.286-24.62c-8.224-15.557-31.213-34.406-24.849-34.748c17.148-1.356,65.138,11.183,53.419,18.115
		c-10.315,6.417,42.769,31.201,23.847,32.867c-18.964,1.399,27.042,19.01,9.773,22.19c-18.19,3.018-13.516,0.433,11.794,18.417
		c25.406,19.052,21.714,34.813-14.289,20.234C25.759,18.911,18.09,31.442-11.085,16.5c-28.594-14.633-51.125-0.831-92.393-6.425
		c-37.635-6.414-46.295,4.234-80.998-1.563c-29.766-8.047-68.219,16.037-68.563,7.519C-251.275,6.255-230.595,0.388-230.965,0.539z"
		/>
	<path clip-path="url(#SVGID_2_)" fill="#8C9557" d="M684.583,98.945c34.198,46.551,57.104,14.633,107.636,57.398
		c50.528,42.768,69.167-55.671,127.094,5.383c57.927,61.055,46.567-50.72,117.695,7.76c71.128,58.483-26.32-53.51,31.117-62.506
		c57.433-8.998-50.776-77.793-76.479-43.742c-25.697,34.053-44.734-41.154-80.025-8.522c-35.295,32.634-46.354-12.889-85.055,5.063
		c-38.701,17.952-104.492-10.333-122.529,9.62C686.003,89.354,671.906,81.688,684.583,98.945z"/>
	<path clip-path="url(#SVGID_2_)" fill="#8C9557" d="M732.453,257.151c35.771-7.353,32.003-66.391,63.466-19.502
		c31.467,46.888,32.701-46.584,95.107-9.848c62.408,36.735,103.219,117.731,29.688,88.073
		c-73.531-29.659-81.862,56.648-94.328,12.228c-12.464-44.422-73.094,44.809-71.271-5.091
		C756.938,273.112,672.19,269.54,732.453,257.151z"/>
	<path clip-path="url(#SVGID_2_)" fill="#8C9557" d="M771.849,468.227c22.969,28.177-4.359-30.028,43.339,12.231
		c47.698,42.258,38.984-17.794,65.62,4.839c26.635,22.633,13.838-23.227,63.244,3.859c49.404,27.083,16.683,7.94,49.803-0.982
		c33.119-8.92,68.833-49.232,6.325-54.201c-62.508-4.966-43.852-43.495-80.06-15.028c-36.206,28.466-13.818-32.871-48.938,3.102
		c-35.115,35.972,1.067-11.911-33.984,6.797c-35.053,18.711-40.141-10.206-57.313,7.766c-17.17,17.969-21.787,19.239-11.193,30.669"
		/>
	<path clip-path="url(#SVGID_2_)" fill="#8C9557" d="M599.685,725.3c-8.708,13.518,8.951,5.708,23.305,0.664
		c15.959-5.342,28.612-7.92,47.014,9.122c37.635,14.347,67.086,10.425,86.955,6.026c21.016-4.602,32.451-9.683,60.453-2.362
		c28.589,7.148,39.576,4.438,54.412,1.75c15.528-2.477,34.906-4.933,96.31,7.516c121.315,28.188,43.128,9.688,120.367,11.145
		c39.198,2.225,71.599-5.267,55.526-17.325c-12.12-11.575-72.709-27.716-128.214-31.69
		c-117.016-9.122-136.042-44.729-131.386-18.914c-10.906,11.873-22.028,4.25-22.367-2.567c-2.736-6.813,5.31-12.82-22.721,2.383
		c-38.662,14.052-38.44,11.536-30.229,7.19c7.067-4.352,22.128-10.529-13.222-3.977c-39.833,6.516-48.898,3.547-48.32,0.427
		c-1.141-3.058,7.365-6.263-36.994,1.144c-86.318,15.041-104.313,17.32-114.729,28.56"/>
	<path clip-path="url(#SVGID_2_)" fill="#8C9557" d="M676.573,612.813c27.523,35.255-4.578-37.047,52.994,16.172
		c57.57,53.219,48.412-20.875,80.589,7.656c32.175,28.531,17.622-28.208,77.69,6.388c60.067,34.6,20.314,10.201,61.283,0.089
		c40.972-10.112,85.948-58.771,9.19-66.503c-76.761-7.734-52.813-54.641-98.086-20.567c-45.276,34.073-16.144-40.792-60.273,2.544
		c-44.13,43.336,1.617-14.622-41.981,7.482c-43.602,22.102-49.109-13.6-70.698,8.057c-21.583,21.662-27.3,23.102-14.563,37.433"/>
	<path clip-path="url(#SVGID_2_)" fill="#8C9557" d="M571.703,0.539c0.13-0.362,32.906-21.992,48.901-13.628
		c20.786,6.644,58.75-11.989,66.979-3.625c12.016,7.542,23.5-8.096,52.49-1.841c33.213,6.231,20.817-10.508,53.958-3.058
		c16.839,3.909,21.442-8.708,11.286-24.62c-8.224-15.557-31.213-34.406-24.849-34.748c17.145-1.356,65.136,11.183,53.417,18.115
		c-10.313,6.417,42.771,31.201,23.849,32.867c-18.964,1.399,27.042,19.01,9.771,22.19c-18.188,3.018-13.516,0.433,11.797,18.417
		c25.406,19.052,21.714,34.813-14.291,20.234c-36.584-11.933-44.256,0.599-73.428-14.344c-28.594-14.633-51.125-0.831-92.396-6.425
		c-37.636-6.414-46.292,4.234-80.995-1.563c-29.766-8.047-68.219,16.037-68.563,7.519C551.391,6.255,572.073,0.388,571.703,0.539z"
		/>
	<path clip-path="url(#SVGID_2_)" fill="#8C9557" d="M113.161,777.995c32.477,45.33,54.958,14.781,103.248,56.646
		c48.287,41.87,67.412-52.948,122.63,6.659c55.221,59.604,45.539-48.43,113.531,8.844c67.992,57.273-24.792-51.961,30.755-59.987
		c55.55-8.023-48.122-75.683-73.325-43.104c-25.201,32.578-42.714-40.244-77.159-9.146c-34.445,31.099-44.599-12.977-82.166,3.909
		c-37.565,16.885-100.755-11.175-118.396,7.877C114.641,768.75,101.12,761.188,113.161,777.995z"/>
	<path clip-path="url(#SVGID_2_)" fill="#8C9557" d="M-230.965,803.206c0.133-0.362,32.906-21.992,48.903-13.628
		c20.784,6.644,58.747-11.989,66.976-3.625c12.016,7.542,23.503-8.097,52.492-1.841c33.214,6.232,20.815-10.508,53.956-3.058
		c16.838,3.909,21.445-8.708,11.286-24.62c-8.224-15.557-31.213-34.406-24.849-34.747c17.148-1.356,65.138,11.183,53.419,18.114
		c-10.315,6.417,42.769,31.201,23.847,32.867c-18.964,1.398,27.042,19.011,9.773,22.19c-18.19,3.019-13.516,0.433,11.794,18.417
		c25.406,19.052,21.714,34.813-14.289,20.234c-36.586-11.933-44.255,0.599-73.43-14.344c-28.594-14.633-51.125-0.831-92.393-6.425
		c-37.635-6.414-46.295,4.234-80.998-1.563c-29.766-8.047-68.219,16.036-68.563,7.518
		C-251.275,808.922-230.595,803.055-230.965,803.206z"/>
	<path clip-path="url(#SVGID_2_)" fill="#8C9557" d="M571.703,803.206c0.13-0.362,32.906-21.992,48.901-13.628
		c20.786,6.644,58.75-11.989,66.979-3.625c12.016,7.542,23.5-8.097,52.49-1.841c33.213,6.232,20.817-10.508,53.958-3.058
		c16.839,3.909,21.442-8.708,11.286-24.62c-8.224-15.557-31.213-34.406-24.849-34.747c17.145-1.356,65.136,11.183,53.417,18.114
		c-10.313,6.417,42.771,31.201,23.849,32.867c-18.964,1.398,27.042,19.011,9.771,22.19c-18.188,3.019-13.516,0.433,11.797,18.417
		c25.406,19.052,21.714,34.813-14.291,20.234c-36.584-11.933-44.256,0.599-73.428-14.344c-28.594-14.633-51.125-0.831-92.396-6.425
		c-37.636-6.414-46.292,4.234-80.995-1.563c-29.766-8.047-68.219,16.036-68.563,7.518
		C551.391,808.922,572.073,803.055,571.703,803.206z"/>
	<path clip-path="url(#SVGID_2_)" fill="#1E2E22" d="M642.38,331.233c37.389-8.977,31.383-70.974,66.117-22.719
		c34.732,48.255,32.8-50.151,99.748-13.651c66.945,36.505,112.69,120.329,34.281,91.661c-78.406-28.672-84.193,62.444-98.844,16.128
		c-14.651-46.318-75.37,49.676-75.18-2.896C668.695,347.181,579.388,346.353,642.38,331.233z"/>
	<path clip-path="url(#SVGID_2_)" fill="#1E2E22" d="M598.745-6.956c0,0,9.807-25.556,36.471-11.438
		c26.662,14.119,50.781-11.138,64.803,3.397c14.016,14.531,20.447-11.101,49.656,2.395c29.2,13.496,22.247-16.48,51.424-1.628
		c29.178,14.848,34.695-87.406,79.24-82.406c44.549,5.001,59.322,23.619,26.367,28.351c-32.959,4.73-14.359,41.732-35.456,43.322
		c-21.097,1.591,4.456,28.568-13.356,34.297c-17.811,5.726-12.672,1.767-1.482,30.475c11.193,28.711,8.898,57.812-16.867,41.001
		C813.776,64,806.44,92.32,786.901,60.045c-19.542-32.273-37.836-3.506-69.44-23.151c-31.604-19.65-35.341-2.102-67.8-21.085
		c-32.458-18.987-52.385,7.034-58.852-5.984C584.344-3.19,598.745-6.956,598.745-6.956z"/>
	<path clip-path="url(#SVGID_2_)" fill="#1E2E22" d="M192.542,153.149c0,0,5.651-14.723,21.012-6.59
		c15.359,8.134,29.255-6.415,37.332,1.958c8.074,8.371,11.78-6.396,28.607,1.379c16.823,7.775,12.816-9.495,29.625-0.938
		c16.81,8.553,19.988-50.354,45.651-47.474c25.664,2.882,34.174,13.607,15.19,16.333c-18.988,2.724-8.273,24.042-20.427,24.957
		c-12.154,0.916,2.567,16.458-7.694,19.758c-10.26,3.299-7.301,1.018-0.854,17.557c6.448,16.54,5.126,33.306-9.717,23.621
		c-14.845-9.685-19.07,6.63-30.327-11.963c-11.258-18.592-21.798-2.02-40.005-13.337c-18.207-11.32-20.359-1.211-39.059-12.147
		c-18.699-10.938-30.18,4.053-33.904-3.447C184.246,155.319,192.542,153.149,192.542,153.149z"/>
	<path clip-path="url(#SVGID_2_)" fill="#1E2E22" d="M183.149,3.319c-4.28,21.066,6.642,8.798,15.663,0.85
		c10.065-8.424,18.234-12.526,32.487,13.804c26.81,21.995,46.061,15.674,58.846,8.688c13.53-7.316,20.598-15.293,40.163-4.142
		c19.939,10.887,26.977,6.587,36.591,2.299c10.105-3.97,22.783-7.935,65.273,10.927c84.359,42.845,29.95,14.713,81.776,16.377
		c26.469,3.15,47.286-8.738,35.161-27.346c-9.427-17.889-51.797-42.499-89.37-48.236c-79.307-13.262-96.099-68.434-90.035-28.363
		c-5.94,18.526-14.249,6.771-15.255-3.817c-2.607-10.563,2.088-19.958-14.923,3.88c-24.254,22.132-24.392,18.22-19.396,11.406
		c4.229-6.814,13.597-16.531-9.297-6.073c-25.899,10.424-32.301,5.885-32.271,1.038c-1.109-4.743,4.212-9.789-24.612,2.065
		c-56.014,24.035-67.788,27.719-73.473,45.259"/>
	<path clip-path="url(#SVGID_2_)" fill="#1E2E22" d="M325.672,226.026c10.706-11.293-0.705-7.949-9.291-6.527
		c-9.412,1.314-15.998,0.699-14.655-20.931c-8.027-23.784-22.271-27.285-32.798-27.897c-11.113-0.697-18.51,1.491-26.249-12.857
		c-8.068-14.328-14.037-14.388-21.583-15.441c-7.727-1.436-17.031-3.863-35.887-31.735c-35.369-58.651-12.748-20.519-43.93-41.412
		c-15.044-12.082-32.384-12.764-32.074,3.31c-1.072,14.598,15.508,45.953,36.377,63.883c43.608,38.549,32.763,78.863,44.405,51.934
		c10.75-9.098,11.345,1.306,7.902,8.194c-2.449,7.484-8.935,11.452,10.649,3.338c23.378-4.288,21.964-1.833,16.283,0.434
		c-5.21,2.563-14.685,4.938,3.38,7.294c19.898,3.528,22.088,8.771,20.211,11.734c-1.137,3.338-6.339,4.397,15.903,8.169
		c43.607,6.72,52.247,8.973,62.464,0.383"/>
	<path clip-path="url(#SVGID_2_)" fill="#1E2E22" d="M608.672,515.05c28.651,39.19,47.966,12.408,90.354,48.447
		c42.391,36.045,58.242-46.658,106.813,4.769c48.572,51.425,39.239-42.544,98.911,6.745c59.672,49.291-22.021-45.026,26.271-52.477
		c48.292-7.453-42.531-65.482-64.197-36.912c-21.662,28.573-37.521-34.677-67.245-7.315c-29.729,27.361-38.938-10.922-71.5,4.094
		c-32.563,15.013-87.808-8.886-103.003,7.852C609.88,506.989,598.047,500.521,608.672,515.05z"/>
	<path clip-path="url(#SVGID_2_)" fill="#1E2E22" d="M550.008,660.825c28.651,39.19,47.966,12.409,90.354,48.448
		c42.391,36.044,58.242-46.659,106.813,4.769c48.572,51.424,39.239-42.545,98.911,6.744c59.672,49.292-22.021-45.025,26.271-52.477
		c48.292-7.453-42.531-65.481-64.197-36.911c-21.662,28.573-37.521-34.677-67.245-7.315c-29.729,27.362-38.938-10.922-71.5,4.094
		c-32.563,15.014-87.808-8.885-103.003,7.852C551.216,652.766,539.383,646.297,550.008,660.825z"/>
	<path clip-path="url(#SVGID_2_)" fill="#1E2E22" d="M511.753,506.133c0,0,10.008-24.872,35.898-10.622
		c25.888,14.25,49.911-10.104,63.408,4.352c13.498,14.453,20.206-10.545,48.597,3.135c28.386,13.68,22.047-15.789,50.391-0.781
		c28.339,15.003,35.359-85.055,78.911-79.45c43.547,5.604,57.719,24.073,25.37,28.183c-32.354,4.111-14.724,40.646-35.406,41.869
		c-20.688,1.222,3.906,28.047-13.63,33.375c-17.531,5.326-12.438,1.531-1.933,29.826c10.505,28.294,7.797,56.76-17.172,39.885
		c-24.964-16.872-32.599,10.748-51.224-21.172c-18.625-31.916-37-4.033-67.641-23.773c-30.641-19.742-34.578-2.617-66.068-21.724
		c-31.484-19.106-51.411,6.06-57.541-6.792C497.589,509.594,511.753,506.133,511.753,506.133z"/>
	<path clip-path="url(#SVGID_2_)" fill="#1E2E22" d="M962.219,253.117c-20.083-41.386-42.62-19.683-76.044-60.453
		c-33.425-40.776-62.19,33.651-98.779-22.513c-36.586-56.164-43.775,33.029-91.072-23.021
		c-47.295-56.049,12.914,45.703-33.37,44.482c-46.284-1.221,28.573,68.245,53.607,45.271c25.031-22.972,29.117,38.677,61.459,18.198
		c32.341-20.482,34.453,16.771,67.351,8.276c32.898-8.487,80.361,23.141,97.359,10.107
		C959.729,260.427,969.667,268.461,962.219,253.117z"/>
	<path clip-path="url(#SVGID_2_)" fill="#1E2E22" d="M866.219,196.227c-20.083-41.385-42.62-19.682-76.044-60.453
		c-33.425-40.776-62.19,33.651-98.779-22.513c-36.586-56.164-43.775,33.028-91.072-23.021
		c-47.295-56.049,12.914,45.703-33.37,44.482c-46.284-1.222,28.573,68.245,53.607,45.27c25.031-22.971,29.117,38.677,61.459,18.198
		c32.341-20.482,34.453,16.77,67.352,8.276c32.898-8.487,80.361,23.141,97.359,10.107
		C863.729,203.538,873.667,211.571,866.219,196.227z"/>
	<path clip-path="url(#SVGID_2_)" fill="#1E2E22" d="M797.495,226.45c-20.084-41.385-42.62-19.682-76.045-60.453
		c-33.424-40.776-62.19,33.651-98.778-22.513c-36.586-56.164-43.776,33.028-91.073-23.021
		c-47.294-56.049,12.914,45.703-33.369,44.482c-46.284-1.222,28.572,68.245,53.606,45.271
		c25.031-22.971,29.117,38.677,61.458,18.198c32.342-20.482,34.453,16.77,67.352,8.276c32.898-8.487,80.362,23.141,97.359,10.107
		C795.005,233.76,804.942,241.794,797.495,226.45z"/>
	<path clip-path="url(#SVGID_2_)" fill="#1E2E22" d="M-157.62,331.233c37.388-8.977,31.383-70.974,66.117-22.719
		c34.732,48.255,32.8-50.151,99.747-13.651c66.945,36.505,112.69,120.329,34.281,91.661c-78.406-28.672-84.193,62.444-98.844,16.128
		c-14.651-46.318-75.37,49.676-75.18-2.896C-131.305,347.181-220.612,346.353-157.62,331.233z"/>
	<path clip-path="url(#SVGID_2_)" fill="#1E2E22" d="M489.078,305.13c18.192-4.37,15.271-34.536,32.172-11.056
		c16.901,23.483,15.958-24.404,48.536-6.642c32.578,17.763,54.839,58.552,16.683,44.604c-38.151-13.953-40.969,30.386-48.099,7.847
		c-7.131-22.539-36.675,24.174-36.584-1.409C501.88,312.891,458.422,312.487,489.078,305.13z"/>
	<path clip-path="url(#SVGID_2_)" fill="#1E2E22" d="M168.159,318.789c37.388-8.977,31.383-70.974,66.117-22.719
		c34.732,48.255,32.799-50.151,99.748-13.651c66.945,36.505,112.69,120.331,34.281,91.662
		c-78.406-28.672-84.193,62.446-98.844,16.127c-14.651-46.317-75.37,49.678-75.18-2.896
		C194.474,334.737,105.166,333.909,168.159,318.789z"/>
	<path clip-path="url(#SVGID_2_)" fill="#1E2E22" d="M383.27,318.624c26.16-6.28,21.96-49.659,46.262-15.896
		c24.302,33.765,22.95-35.09,69.792-9.552c46.841,25.543,78.849,84.195,23.986,64.135c-54.859-20.061-58.908,43.693-69.158,11.284
		c-10.253-32.407-52.737,34.76-52.604-2.026C401.683,329.782,339.195,329.203,383.27,318.624z"/>
	<path clip-path="url(#SVGID_2_)" fill="#1E2E22" d="M-201.255-6.956c0,0,9.807-25.556,36.471-11.438
		c26.662,14.119,50.781-11.138,64.802,3.397c14.016,14.531,20.448-11.101,49.656,2.395c29.201,13.496,22.248-16.48,51.424-1.628
		c29.177,14.848,34.695-87.406,79.24-82.406c44.549,5.001,59.323,23.619,26.367,28.351c-32.958,4.73-14.359,41.732-35.456,43.322
		C50.153-23.371,75.706,3.606,57.893,9.335c-17.81,5.726-12.672,1.767-1.482,30.475c11.193,28.711,8.899,57.812-16.867,41.001
		C13.776,64,6.44,92.32-13.099,60.045c-19.541-32.273-37.836-3.506-69.44-23.151c-31.604-19.65-35.341-2.102-67.8-21.085
		c-32.458-18.987-52.385,7.034-58.852-5.984C-215.656-3.19-201.255-6.956-201.255-6.956z"/>
	<path clip-path="url(#SVGID_2_)" fill="#1E2E22" d="M-191.328,515.05c28.651,39.19,47.966,12.408,90.354,48.447
		c42.391,36.045,58.242-46.658,106.813,4.769c48.573,51.425,39.24-42.544,98.912,6.745c59.672,49.291-22.021-45.026,26.27-52.477
		c48.292-7.453-42.531-65.482-64.198-36.912c-21.662,28.573-37.521-34.677-67.245-7.315c-29.729,27.361-38.938-10.922-71.5,4.094
		c-32.563,15.013-87.808-8.886-103.003,7.852C-190.12,506.989-201.953,500.521-191.328,515.05z"/>
	<path clip-path="url(#SVGID_2_)" fill="#1E2E22" d="M194.449,600.383c28.651,39.19,47.966,12.409,90.354,48.448
		c42.391,36.044,58.242-46.659,106.813,4.767c48.572,51.425,39.239-42.544,98.911,6.745c59.672,49.292-22.022-45.026,26.27-52.477
		c48.292-7.453-42.531-65.482-64.198-36.911c-21.661,28.572-37.521-34.678-67.243-7.315c-29.729,27.362-38.938-10.922-71.5,4.094
		c-32.563,15.013-87.808-8.886-103.003,7.852C195.657,592.323,183.824,585.854,194.449,600.383z"/>
	<path clip-path="url(#SVGID_2_)" fill="#1E2E22" d="M154.734,555.911c18.211,24.909,30.487,7.886,57.43,30.792
		c26.942,22.911,37.018-29.656,67.889,3.031c30.873,32.685,24.94-27.042,62.867,4.286c37.927,31.331-13.996-28.617,16.698-33.354
		c30.694-4.737-27.032-41.62-40.805-23.461c-13.767,18.161-23.848-22.039-42.739-4.648c-18.896,17.391-24.749-6.943-45.445,2.602
		c-20.697,9.541-55.81-5.648-65.469,4.989C155.502,550.786,147.981,546.677,154.734,555.911z"/>
	<path clip-path="url(#SVGID_2_)" fill="#1E2E22" d="M-249.992,660.825c28.651,39.19,47.966,12.409,90.354,48.448
		c42.391,36.044,58.242-46.659,106.813,4.769c48.573,51.424,39.24-42.545,98.912,6.744c59.672,49.292-22.021-45.025,26.271-52.477
		c48.292-7.453-42.531-65.481-64.198-36.911c-21.662,28.573-37.521-34.677-67.245-7.315c-29.729,27.362-38.938-10.922-71.5,4.094
		c-32.563,15.014-87.808-8.885-103.003,7.852C-248.784,652.766-260.617,646.297-249.992,660.825z"/>
	<path clip-path="url(#SVGID_2_)" fill="#1E2E22" d="M-288.248,506.133c0,0,10.008-24.872,35.898-10.622
		c25.888,14.25,49.912-10.104,63.409,4.352c13.497,14.453,20.206-10.545,48.597,3.135c28.385,13.68,22.047-15.789,50.391-0.781
		c28.338,15.003,35.359-85.055,78.911-79.45c43.547,5.604,57.719,24.073,25.37,28.183c-32.354,4.111-14.724,40.646-35.406,41.869
		c-20.687,1.222,3.906,28.047-13.63,33.375c-17.531,5.326-12.438,1.531-1.932,29.826c10.505,28.294,7.797,56.76-17.172,39.885
		c-24.964-16.872-32.599,10.748-51.224-21.172c-18.625-31.916-37-4.033-67.641-23.773c-30.641-19.742-34.578-2.617-66.068-21.724
		c-31.484-19.106-51.411,6.06-57.541-6.792C-302.412,509.594-288.248,506.133-288.248,506.133z"/>
	<path clip-path="url(#SVGID_2_)" fill="#1E2E22" d="M162.219,253.117c-20.083-41.386-42.62-19.683-76.044-60.453
		c-33.424-40.776-62.19,33.651-98.779-22.513c-36.586-56.164-43.776,33.029-91.073-23.021
		c-47.294-56.049,12.914,45.703-33.37,44.482c-46.284-1.221,28.573,68.245,53.607,45.271c25.031-22.972,29.117,38.677,61.458,18.198
		c32.341-20.482,34.453,16.771,67.352,8.276c32.898-8.487,80.362,23.141,97.359,10.107
		C159.729,260.427,169.667,268.461,162.219,253.117z"/>
	<path clip-path="url(#SVGID_2_)" fill="#1E2E22" d="M66.219,196.227c-20.083-41.385-42.62-19.682-76.044-60.453
		c-33.424-40.776-62.19,33.651-98.779-22.513c-36.586-56.164-43.776,33.028-91.073-23.021
		c-47.294-56.049,12.914,45.703-33.37,44.482c-46.284-1.222,28.573,68.245,53.607,45.27c25.031-22.971,29.117,38.677,61.458,18.198
		c32.341-20.482,34.453,16.77,67.352,8.276c32.899-8.487,80.362,23.141,97.359,10.107C63.729,203.538,73.666,211.571,66.219,196.227
		z"/>
	<path clip-path="url(#SVGID_2_)" fill="#1E2E22" d="M-2.505,226.45c-20.083-41.385-42.62-19.682-76.044-60.453
		c-33.424-40.776-62.19,33.651-98.778-22.513c-36.586-56.164-43.776,33.028-91.073-23.021
		c-47.294-56.049,12.914,45.703-33.37,44.482c-46.284-1.222,28.573,68.245,53.607,45.271c25.031-22.971,29.117,38.677,61.458,18.198
		c32.341-20.482,34.453,16.77,67.352,8.276c32.898-8.487,80.362,23.141,97.359,10.107C-4.995,233.76,4.942,241.794-2.505,226.45z"/>
	<path clip-path="url(#SVGID_2_)" fill="#1E2E22" d="M434.805,478.523c-24.18-13.653-35.189-4.239-68.784-16.761
		c-33.592-12.523-36.581,16.453-76.086-1.438c-39.502-17.896-23.54,14.972-70.688-2.15c-47.146-17.123,20.069,15.708-13.375,18.419
		c-33.444,2.711,36.621,22.825,49.116,12.778c12.493-10.044,30.013,12.058,48.332,2.417c18.319-9.638,28.651,3.739,50.206-1.586
		c21.559-5.323,63.044,2.925,72.135-2.966C434.753,481.347,443.773,483.589,434.805,478.523z"/>
	<path clip-path="url(#SVGID_2_)" fill="#1E2E22" d="M598.745,793.044c0,0,9.807-25.555,36.471-11.438
		c26.662,14.117,50.781-11.138,64.803,3.398c14.016,14.531,20.447-11.102,49.656,2.393c29.2,13.497,22.247-16.481,51.424-1.628
		c29.178,14.85,34.695-87.406,79.24-82.406c44.549,5,59.322,23.62,26.367,28.352c-32.959,4.729-14.359,41.732-35.456,43.32
		c-21.097,1.594,4.456,28.568-13.356,34.297c-17.811,5.729-12.672,1.769-1.482,30.477c11.193,28.711,8.898,57.813-16.867,41.003
		C813.776,864,806.44,892.32,786.901,860.047c-19.542-32.276-37.836-3.508-69.44-23.151c-31.604-19.65-35.341-2.104-67.8-21.086
		c-32.458-18.986-52.385,7.034-58.852-5.984C584.344,796.81,598.745,793.044,598.745,793.044z"/>
	<path clip-path="url(#SVGID_2_)" fill="#1E2E22" d="M183.149,803.317c-4.28,21.068,6.642,8.8,15.663,0.852
		c10.065-8.424,18.234-12.525,32.487,13.805c26.81,21.995,46.061,15.672,58.846,8.688c13.53-7.317,20.598-15.294,40.163-4.142
		c19.939,10.888,26.977,6.586,36.591,2.299c10.105-3.969,22.783-7.935,65.273,10.928c84.359,42.844,29.95,14.713,81.776,16.377
		c26.469,3.148,47.286-8.736,35.161-27.346c-9.427-17.891-51.797-42.5-89.37-48.234c-79.307-13.264-96.099-68.438-90.035-28.365
		c-5.94,18.526-14.249,6.771-15.255-3.817c-2.607-10.563,2.088-19.958-14.923,3.88c-24.254,22.131-24.392,18.219-19.396,11.406
		c4.229-6.813,13.597-16.531-9.297-6.072c-25.899,10.424-32.301,5.885-32.271,1.036c-1.109-4.742,4.212-9.786-24.612,2.067
		c-56.014,24.034-67.788,27.719-73.473,45.258"/>
	<path clip-path="url(#SVGID_2_)" fill="#1E2E22" d="M-201.255,793.044c0,0,9.807-25.555,36.471-11.438
		c26.662,14.117,50.781-11.138,64.802,3.398c14.016,14.531,20.448-11.102,49.656,2.393c29.201,13.497,22.248-16.481,51.424-1.628
		c29.177,14.85,34.695-87.406,79.24-82.406c44.549,5,59.323,23.62,26.367,28.352c-32.958,4.729-14.359,41.732-35.456,43.32
		c-21.097,1.594,4.456,28.568-13.357,34.297c-17.81,5.729-12.672,1.769-1.482,30.477c11.193,28.711,8.899,57.813-16.867,41.003
		C13.776,864,6.44,892.32-13.099,860.047c-19.541-32.276-37.836-3.508-69.44-23.151c-31.604-19.65-35.341-2.104-67.8-21.086
		c-32.458-18.986-52.385,7.034-58.852-5.984C-215.656,796.81-201.255,793.044-201.255,793.044z"/>
</g>
</svg>
